#!OML:ASF I:\Actors\actors\Patient Classification 1\Patient 1\Session 1\Subject1.ASF
:FULLY-SPECIFIED
:DEGREES
639
root -0.297983 17.7331 8.27784 25.3785 6.89913 -11.0922
lowerback 22.3495 1.85764 7.20623
upperback 4.60509 3.8185 -2.51823
thorax -6.71364 1.69982 -7.93783
lowerneck 4.03873 3.52191 2.32436
upperneck -15.3305 5.81901 4.48597
head -5.35786 2.47314 0.670449
rclavicle -1.74931e-014 -3.57812e-014
rhumerus 6.3097 28.5611 -75.9436
rradius 37.4626
rwrist 16.5906
rhand -6.32512 -30.4197
rfingers 7.12502
rthumb 19.5198 -59.4598
lclavicle -1.74931e-014 -3.57812e-014
lhumerus 16.128 -41.9326 78.8713
lradius 31.3933
lwrist -7.3679
lhand -21.4804 -20.9324
lfingers 7.12502
lthumb 4.91047 8.99072
rfemur -24.3304 24.2477 21.0691
rtibia 3.02021
rfoot -12.1283 -31.0763
rtoes 9.93739
lfemur -28.5645 -44.6187 19.3218
ltibia -2.16399
lfoot -20.416 55.8308
ltoes 8.57038
640
root -0.28502 17.7408 8.29006 25.4308 7.29229 -11.2658
lowerback 22.7143 2.06192 6.55502
upperback 4.4953 3.94917 -2.60201
thorax -7.04403 1.75069 -7.72212
lowerneck 3.76145 3.61019 2.24387
upperneck -15.6531 5.98351 4.6942
head -5.42212 2.54385 0.741111
rclavicle 7.63333e-014 -8.82604e-014
rhumerus 5.73418 28.2864 -76.3943
rradius 38.0191
rwrist 16.0704
rhand -6.48055 -30.3486
rfingers 7.12502
rthumb 19.3703 -59.4038
lclavicle 7.63333e-014 -8.82604e-014
lhumerus 16.074 -42.2891 78.7906
lradius 32.013
lwrist -6.9863
lhand -21.1468 -21.138
lfingers 7.12502
lthumb 5.23257 8.77744
rfemur -24.2533 24.5309 21.1739
rtibia 2.78954
rfoot -12.3585 -31.616
rtoes 10.5501
lfemur -28.8512 -44.5532 19.7341
ltibia -2.16958
lfoot -19.4808 55.794
ltoes 7.85932
641
root -0.271416 17.7468 8.30472 25.5067 7.68302 -11.4972
lowerback 23.1287 2.25571 5.96283
upperback 4.31687 4.07662 -2.69128
thorax -7.47393 1.7931 -7.55612
lowerneck 3.51376 3.65747 2.15991
upperneck -15.7784 6.0899 4.97486
head -5.43198 2.58608 0.839592
rclavicle 3.89618e-014 2.38542e-014
rhumerus 5.06729 28.0912 -76.9209
rradius 38.6159
rwrist 15.5345
rhand -6.67363 -30.2584
rfingers 7.12502
rthumb 19.1847 -59.3322
lclavicle 3.89618e-014 2.38542e-014
lhumerus 15.96 -42.6876 78.6206
lradius 32.6599
lwrist -6.73074
lhand -20.7798 -20.9854
lfingers 7.12502
lthumb 5.58699 8.92095
rfemur -24.1947 24.8987 21.2962
rtibia 2.5461
rfoot -12.6344 -32.1877
rtoes 11.1503
lfemur -29.1236 -44.5372 20.2514
ltibia -2.24556
lfoot -18.4464 55.8606
ltoes 6.85681
642
root -0.254352 17.7492 8.32211 25.6389 8.05176 -11.7501
lowerback 23.4221 2.45166 5.63228
upperback 4.13527 4.24496 -2.92079
thorax -7.80732 1.85515 -7.70294
lowerneck 3.40391 3.53261 2.12742
upperneck -16.0578 6.00059 5.3782
head -5.51303 2.51342 0.975342
rclavicle -2.8625e-014 5.56597e-015
rhumerus 4.31061 27.5751 -77.6422
rradius 39.2063
rwrist 15.2549
rhand -6.82793 -30.1689
rfingers 7.12502
rthumb 19.0363 -59.2574
lclavicle -2.8625e-014 5.56597e-015
lhumerus 16.0619 -43.5171 78.0405
lradius 33.3498
lwrist -6.32356
lhand -20.625 -20.5745
lfingers 7.12502
lthumb 5.73637 9.3279
rfemur -24.1808 25.184 21.4176
rtibia 2.27896
rfoot -12.8027 -32.6517
rtoes 11.3844
lfemur -29.5669 -44.9383 21.058
ltibia -2.33468
lfoot -18.2966 56.3021
ltoes 6.47519
643
root -0.235129 17.7511 8.3407 25.7825 8.35279 -11.96
lowerback 23.4701 2.67088 5.14758
upperback 4.0976 4.39529 -3.09412
thorax -7.87332 1.93204 -7.6648
lowerneck 3.32605 3.47009 2.12631
upperneck -16.3328 6.00041 5.76004
head -5.59842 2.48338 1.09393
rclavicle -3.26007e-014 3.97569e-014
rhumerus 3.85465 27.3115 -78.0993
rradius 39.7765
rwrist 15.0275
rhand -6.86036 -30.2024
rfingers 7.12502
rthumb 19.0051 -59.2939
lclavicle -3.26007e-014 3.97569e-014
lhumerus 16.4499 -44.1721 77.3425
lradius 33.9661
lwrist -6.02978
lhand -20.4102 -20.2353
lfingers 7.12502
lthumb 5.94379 9.66129
rfemur -24.1989 25.4001 21.4861
rtibia 2.05058
rfoot -12.8226 -33.0121
rtoes 11.4473
lfemur -30.0853 -45.6486 21.9559
ltibia -2.42818
lfoot -18.8974 57.0352
ltoes 6.78154
644
root -0.216305 17.7535 8.35884 25.8416 8.62564 -12.1807
lowerback 23.5157 2.8817 4.52838
upperback 4.15273 4.50816 -3.17663
thorax -7.86137 2.0015 -7.43103
lowerneck 3.1901 3.41692 1.95173
upperneck -16.6544 6.00988 6.1963
head -5.69453 2.46419 1.25883
rclavicle -4.77083e-014 2.94201e-014
rhumerus 3.66602 27.3131 -78.3592
rradius 40.2027
rwrist 14.789
rhand -6.8857 -30.1667
rfingers 7.12502
rthumb 18.9807 -59.2606
lclavicle -4.77083e-014 2.94201e-014
lhumerus 16.9731 -44.5138 76.6793
lradius 34.4617
lwrist -6.12868
lhand -20.2465 -20.2657
lfingers 7.12502
lthumb 6.1018 9.62646
rfemur -24.1695 25.4912 21.6517
rtibia 1.93083
rfoot -12.8196 -33.2092
rtoes 11.5316
lfemur -30.4426 -46.3068 22.7169
ltibia -2.53591
lfoot -19.7584 57.6406
ltoes 7.5853
645
root -0.196825 17.7567 8.37373 25.8207 8.93795 -12.4194
lowerback 23.7246 3.04634 4.00042
upperback 4.20343 4.58831 -3.24303
thorax -7.93954 2.04803 -7.23843
lowerneck 2.7001 3.27852 1.33973
upperneck -16.6964 5.87991 6.95681
head -5.65745 2.3986 1.61471
rclavicle 4.6118e-014 -1.59028e-015
rhumerus 3.54969 27.2818 -78.6095
rradius 40.4714
rwrist 14.6116
rhand -6.83604 -30.0237
rfingers 7.12502
rthumb 19.0285 -59.1129
lclavicle 4.6118e-014 -1.59028e-015
lhumerus 17.4586 -44.7349 76.0623
lradius 34.9408
lwrist -6.4764
lhand -20.3111 -20.4483
lfingers 7.12502
lthumb 6.03946 9.44564
rfemur -24.0966 25.4332 21.937
rtibia 1.90802
rfoot -12.8667 -33.3238
rtoes 11.4448
lfemur -30.7461 -46.8637 23.3967
ltibia -2.57737
lfoot -20.6621 58.0169
ltoes 8.60768
646
root -0.175459 17.7596 8.38593 25.8192 9.273 -12.6752
lowerback 23.9733 3.17486 3.57305
upperback 4.21975 4.64603 -3.3013
thorax -8.0729 2.07818 -7.09513
lowerneck 2.21793 3.12241 0.689469
upperneck -16.6936 5.71607 7.67628
head -5.60316 2.32423 1.96655
rclavicle -4.21423e-014 8.74653e-015
rhumerus 3.41653 27.2514 -78.8347
rradius 40.7181
rwrist 14.4605
rhand -6.75122 -29.8504
rfingers 7.12502
rthumb 19.1101 -58.9316
lclavicle -4.21423e-014 8.74653e-015
lhumerus 17.8382 -44.7833 75.6234
lradius 35.3264
lwrist -6.79598
lhand -20.2731 -20.5718
lfingers 7.12502
lthumb 6.0762 9.32111
rfemur -24.0776 25.2792 22.264
rtibia 1.92006
rfoot -12.8624 -33.3996
rtoes 11.0917
lfemur -31.1514 -47.4298 24.1814
ltibia -2.61705
lfoot -21.4285 58.4695
ltoes 9.41304
647
root -0.153236 17.762 8.39662 25.872 9.56251 -12.8938
lowerback 24.263 3.36264 3.24087
upperback 4.14266 4.80097 -3.36748
thorax -8.30988 2.14537 -7.05441
lowerneck 2.74798 2.96431 0.810425
upperneck -17.3582 5.58707 7.67241
head -5.89607 2.21952 1.94342
rclavicle 1.43125e-014 1.03368e-014
rhumerus 3.0363 26.9591 -79.0621
rradius 40.9211
rwrist 14.4209
rhand -6.76644 -29.5961
rfingers 7.12502
rthumb 19.0954 -58.6787
lclavicle 1.43125e-014 1.03368e-014
lhumerus 18.1347 -45.0544 75.3981
lradius 35.6066
lwrist -6.81679
lhand -20.2046 -20.4919
lfingers 7.12502
lthumb 6.14225 9.39907
rfemur -24.1348 25.22 22.4651
rtibia 1.89958
rfoot -12.8515 -33.5368
rtoes 10.7878
lfemur -31.5785 -47.9387 24.9359
ltibia -2.71262
lfoot -21.9272 59.0466
ltoes 9.79045
648
root -0.129816 17.7638 8.40747 25.9375 9.8044 -13.0769
lowerback 24.5524 3.62311 2.95734
upperback 4.00616 5.06254 -3.39706
thorax -8.59945 2.2587 -7.03808
lowerneck 3.64633 2.78396 0.617848
upperneck -18.1514 5.46595 7.91167
head -6.31035 2.10679 2.04545
rclavicle -5.725e-014 2.22639e-014
rhumerus 2.52254 26.5874 -79.166
rradius 41.0231
rwrist 14.3382
rhand -6.8543 -29.4548
rfingers 7.12502
rthumb 19.0109 -58.5458
lclavicle -5.725e-014 2.22639e-014
lhumerus 18.3745 -45.5813 75.3331
lradius 35.8057
lwrist -6.68251
lhand -20.3247 -20.11
lfingers 7.12502
lthumb 6.02639 9.78427
rfemur -24.1673 25.3129 22.5486
rtibia 1.78899
rfoot -12.9359 -33.7797
rtoes 10.8053
lfemur -32.0481 -48.5747 25.7065
ltibia -2.7912
lfoot -22.7513 59.7498
ltoes 10.3304
649
root -0.104988 17.7658 8.41871 26.0388 10.0718 -13.3335
lowerback 24.7564 3.788 2.61693
upperback 3.82279 5.18769 -3.3906
thorax -8.92652 2.30774 -6.9064
lowerneck 3.61709 2.63552 0.642966
upperneck -17.9362 5.21722 7.79999
head -6.22277 1.99909 2.02257
rclavicle 4.92986e-014 -5.1684e-014
rhumerus 2.17977 26.6187 -79.411
rradius 40.9396
rwrist 14.2721
rhand -7.03807 -29.5075
rfingers 7.12502
rthumb 18.8342 -58.6157
lclavicle 4.92986e-014 -5.1684e-014
lhumerus 18.4648 -45.7971 75.2052
lradius 35.8327
lwrist -6.47833
lhand -20.4839 -19.756
lfingers 7.12502
lthumb 5.87268 10.1426
rfemur -24.199 25.3838 22.6983
rtibia 1.60731
rfoot -13.069 -33.9569
rtoes 11.2017
lfemur -32.7169 -49.3986 26.8059
ltibia -2.84487
lfoot -23.7696 60.6452
ltoes 10.8896
